<svg width="22" height="15" viewBox="0 0 22 15" fill="none" xmlns="http://www.w3.org/2000/svg">
<path id="wikipedia" d="M21.252 0.252158C21.2519 0.336497 21.2272 0.418466 21.1818 0.485456C21.1478 0.546102 21.0901 0.584797 21.0266 0.589614C20.6123 0.618233 20.2167 0.793954 19.8963 1.09162C19.4976 1.55747 19.1889 2.11138 18.9894 2.71846L14.2243 14.8292C14.1929 14.9417 14.106 14.9979 13.962 14.9979C13.8537 15.0005 13.7529 14.9357 13.6997 14.8292L11.0272 8.52594L7.95381 14.8292C7.90067 14.9357 7.79986 15.0005 7.69154 14.9979C7.57835 15.013 7.4692 14.9452 7.42004 14.8292L2.73798 2.71846C2.53994 2.12089 2.22344 1.58226 1.81266 1.14368C1.41834 0.815324 0.948101 0.622869 0.458832 0.589605C0.402165 0.586271 0.35018 0.553099 0.318463 0.500033C0.274831 0.4435 0.251164 0.37084 0.251973 0.295896C0.251973 0.0980114 0.301841 0.000105509 0.401576 0.000105509C0.818989 0.000105509 1.25549 0.0209447 1.71107 0.0626231C2.13403 0.106364 2.53236 0.127888 2.90606 0.127197C3.28653 0.127197 3.73534 0.105673 4.25249 0.0626231C4.79365 0.0209447 5.27325 0.000105509 5.69127 0.000105509C5.79101 0.000105509 5.84088 0.0979949 5.84088 0.295896C5.84088 0.491675 5.80948 0.589564 5.74853 0.589564C5.39629 0.601097 5.05423 0.725379 4.76226 0.947905C4.53142 1.13104 4.39643 1.43164 4.4021 1.74987C4.41353 1.96952 4.46443 2.18425 4.5517 2.38103L8.42109 12.2358L10.6171 7.55734L8.57069 2.71846C8.34752 2.11166 8.04154 1.54798 7.66384 1.04788C7.35877 0.768281 6.98168 0.60752 6.5889 0.589614C6.53667 0.584381 6.4899 0.551019 6.46331 0.500041C6.42283 0.441896 6.40131 0.369821 6.40236 0.295904C6.40236 0.0980196 6.44485 0.000113735 6.53349 0.000113735C6.91714 -0.00174257 7.3006 0.0191254 7.68231 0.0626313C8.03923 0.107293 8.39813 0.128853 8.75724 0.127205C9.13033 0.127205 9.52558 0.105681 9.943 0.0626313C10.3733 0.0209529 10.7969 0.000113735 11.2137 0.000113735C11.3134 0.000113735 11.3633 0.0980031 11.3633 0.295904C11.3633 0.491683 11.3338 0.589573 11.271 0.589573C10.4361 0.654147 10.0187 0.921467 10.0187 1.39153C10.0554 1.73671 10.154 2.06984 10.3087 2.37056L11.6625 5.47012L13.0089 2.63512C13.1716 2.32713 13.2677 1.98036 13.2897 1.62277C13.2897 0.977025 12.8723 0.63263 12.0374 0.589581C11.9617 0.589581 11.9248 0.491691 11.9248 0.295913C11.9249 0.224474 11.9443 0.154765 11.9802 0.0959384C12.019 0.0313643 12.0559 0.000121961 12.0929 0.000121961C12.3921 0.000121961 12.7596 0.0209612 13.1955 0.0626396C13.6129 0.106377 13.9565 0.127214 14.2243 0.127214C14.4164 0.127214 14.7008 0.108467 15.0739 0.0730537C15.5467 0.0251455 15.9438 0.000146639 16.2615 0.000146639C16.3354 0.000146639 16.3723 0.0834678 16.3723 0.252191C16.3723 0.477162 16.304 0.589647 16.1673 0.589647C15.7473 0.61987 15.3423 0.776686 14.9944 1.04372C14.5388 1.52178 14.1639 2.08925 13.8881 2.71847L12.0929 6.46168L14.5235 12.0463L18.1121 2.63514C18.2276 2.33564 18.291 2.01386 18.2987 1.68737C18.2987 0.997889 17.8812 0.631972 17.0464 0.589614C16.9707 0.589614 16.9337 0.491724 16.9337 0.295945C16.9337 0.0980607 16.9892 0.000154865 17.1018 0.000154865C17.4066 0.000154865 17.768 0.0209941 18.186 0.0626725C18.572 0.10641 18.8971 0.127247 19.1575 0.127247C19.476 0.124749 19.7941 0.103194 20.1105 0.0626725C20.4855 0.0210078 20.8216 0.000154865 21.1208 0.000154865C21.2076 0.000113735 21.252 0.0834349 21.252 0.252158Z" fill="white"/>
</svg>
